<svg xmlns="http://www.w3.org/2000/svg" xmlns:xlink="http://www.w3.org/1999/xlink" width="1024" zoomAndPan="magnify" viewBox="0 0 768 767.999994" height="1024" preserveAspectRatio="xMidYMid meet" version="1.2"><defs/><g id="54e789ba51"><rect x="0" width="768" y="0" height="767.999994" style="fill:#ffffff;fill-opacity:1;stroke:none;"/><rect x="0" width="768" y="0" height="767.999994" style="fill:#4e3b31;fill-opacity:1;stroke:none;"/><g style="fill:#f7f2e7;fill-opacity:1;"><g transform="translate(76.799999, 470.245027)"><path style="stroke:none" d="M 173.578125 -8.84375 C 173.578125 -6.800781 172.894531 -5.269531 171.53125 -4.25 C 170.175781 -3.226562 168.59375 -2.492188 166.78125 -2.046875 C 159.738281 -0.679688 152.191406 0.394531 144.140625 1.1875 C 136.085938 1.976562 124.800781 2.375 110.28125 2.375 C 99.84375 2.375 89.347656 0.734375 78.796875 -2.546875 C 68.242188 -5.835938 58.539062 -11.394531 49.6875 -19.21875 C 40.84375 -27.050781 33.753906 -37.773438 28.421875 -51.390625 C 23.085938 -65.003906 20.421875 -82.132812 20.421875 -102.78125 L 20.421875 -150.09375 C 20.421875 -170.96875 23.085938 -188.210938 28.421875 -201.828125 C 33.753906 -215.441406 40.84375 -226.160156 49.6875 -233.984375 C 58.539062 -241.816406 68.242188 -247.320312 78.796875 -250.5 C 89.347656 -253.675781 99.84375 -255.265625 110.28125 -255.265625 C 120.9375 -255.265625 131.253906 -254.640625 141.234375 -253.390625 C 151.222656 -252.148438 159.960938 -250.960938 167.453125 -249.828125 C 171.085938 -249.367188 172.90625 -247.894531 172.90625 -245.40625 L 172.90625 -228.046875 C 172.90625 -225.546875 171.539062 -224.296875 168.8125 -224.296875 C 168.59375 -224.296875 168.425781 -224.296875 168.3125 -224.296875 C 168.195312 -224.296875 168.023438 -224.296875 167.796875 -224.296875 C 163.710938 -224.753906 158.4375 -225.207031 151.96875 -225.65625 C 145.5 -226.113281 138.632812 -226.507812 131.375 -226.84375 C 124.113281 -227.1875 117.191406 -227.359375 110.609375 -227.359375 C 99.492188 -227.359375 89.453125 -224.914062 80.484375 -220.03125 C 71.523438 -215.15625 64.4375 -207.101562 59.21875 -195.875 C 54 -184.644531 51.390625 -169.382812 51.390625 -150.09375 L 51.390625 -102.78125 C 51.390625 -83.726562 54 -68.582031 59.21875 -57.34375 C 64.4375 -46.113281 71.523438 -38.003906 80.484375 -33.015625 C 89.453125 -28.023438 99.492188 -25.53125 110.609375 -25.53125 C 120.367188 -25.53125 130.640625 -25.867188 141.421875 -26.546875 C 152.203125 -27.222656 160.65625 -27.789062 166.78125 -28.25 C 167 -28.25 167.222656 -28.25 167.453125 -28.25 C 167.679688 -28.25 167.910156 -28.25 168.140625 -28.25 C 171.765625 -28.25 173.578125 -26.429688 173.578125 -22.796875 Z M 173.578125 -8.84375 "/></g></g><g style="fill:#f7f2e7;fill-opacity:1;"><g transform="translate(262.287599, 470.245027)"><path style="stroke:none" d="M 192.640625 -69.78125 C 192.640625 -55.476562 189.972656 -43.675781 184.640625 -34.375 C 179.304688 -25.070312 172.046875 -17.695312 162.859375 -12.25 C 153.671875 -6.800781 143.117188 -3 131.203125 -0.84375 C 119.296875 1.300781 106.648438 2.375 93.265625 2.375 C 82.140625 2.375 71.753906 2.09375 62.109375 1.53125 C 52.472656 0.96875 44.363281 0.226562 37.78125 -0.6875 C 33.925781 -1.132812 31.085938 -2.265625 29.265625 -4.078125 C 27.453125 -5.898438 26.546875 -8.96875 26.546875 -13.28125 L 26.546875 -239.953125 C 26.546875 -247.671875 30.175781 -251.867188 37.4375 -252.546875 C 43.113281 -253.222656 50.769531 -253.84375 60.40625 -254.40625 C 70.050781 -254.976562 80.4375 -255.265625 91.5625 -255.265625 C 109.707031 -255.265625 126.320312 -253.335938 141.40625 -249.484375 C 156.5 -245.628906 168.582031 -238.992188 177.65625 -229.578125 C 186.738281 -220.160156 191.28125 -206.828125 191.28125 -189.578125 L 191.28125 -184.140625 C 191.28125 -171.660156 188.101562 -160.765625 181.75 -151.453125 C 175.394531 -142.148438 166.429688 -135.234375 154.859375 -130.703125 C 166.660156 -126.617188 175.90625 -119.695312 182.59375 -109.9375 C 189.289062 -100.175781 192.640625 -88.71875 192.640625 -75.5625 Z M 160.3125 -184.140625 L 160.3125 -189.578125 C 160.3125 -200.472656 157.472656 -208.753906 151.796875 -214.421875 C 146.128906 -220.097656 138.128906 -223.957031 127.796875 -226 C 117.472656 -228.039062 105.394531 -229.0625 91.5625 -229.0625 C 85.882812 -229.0625 80.039062 -228.945312 74.03125 -228.71875 C 68.019531 -228.488281 62.628906 -228.265625 57.859375 -228.046875 L 57.859375 -143.625 L 110.28125 -143.625 C 123.4375 -143.625 133.644531 -145.492188 140.90625 -149.234375 C 148.164062 -152.984375 153.210938 -157.976562 156.046875 -164.21875 C 158.890625 -170.457031 160.3125 -177.097656 160.3125 -184.140625 Z M 161.671875 -69.78125 L 161.671875 -75.5625 C 161.671875 -83.050781 160.195312 -90.082031 157.25 -96.65625 C 154.300781 -103.238281 149.082031 -108.570312 141.59375 -112.65625 C 134.101562 -116.738281 123.664062 -118.78125 110.28125 -118.78125 L 57.859375 -118.78125 L 57.859375 -25.1875 C 63.535156 -24.957031 69.378906 -24.671875 75.390625 -24.328125 C 81.398438 -23.992188 87.359375 -23.828125 93.265625 -23.828125 C 107.328125 -23.828125 119.460938 -25.128906 129.671875 -27.734375 C 139.890625 -30.347656 147.773438 -34.941406 153.328125 -41.515625 C 158.890625 -48.097656 161.671875 -57.519531 161.671875 -69.78125 Z M 161.671875 -69.78125 "/></g></g><g style="fill:#f7f2e7;fill-opacity:1;"><g transform="translate(471.939599, 470.245027)"><path style="stroke:none" d="M 192.640625 -6.8125 C 192.640625 -5.21875 192.070312 -3.679688 190.9375 -2.203125 C 189.800781 -0.734375 188.328125 0 186.515625 0 L 167.796875 0 C 166.210938 0 164.796875 -0.675781 163.546875 -2.03125 C 162.296875 -3.394531 161.671875 -4.988281 161.671875 -6.8125 L 161.671875 -107.546875 L 57.515625 -107.546875 L 57.515625 -6.8125 C 57.515625 -5.21875 56.945312 -3.679688 55.8125 -2.203125 C 54.675781 -0.734375 53.203125 0 51.390625 0 L 32.671875 0 C 31.085938 0 29.671875 -0.734375 28.421875 -2.203125 C 27.171875 -3.679688 26.546875 -5.21875 26.546875 -6.8125 L 26.546875 -184.8125 C 26.546875 -210.90625 32.613281 -229.171875 44.75 -239.609375 C 56.894531 -250.046875 75.21875 -255.265625 99.71875 -255.265625 L 119.46875 -255.265625 C 143.75 -255.265625 162.015625 -250.046875 174.265625 -239.609375 C 186.515625 -229.171875 192.640625 -210.90625 192.640625 -184.8125 Z M 161.671875 -134.78125 L 161.671875 -184.8125 C 161.671875 -196.613281 160.304688 -205.632812 157.578125 -211.875 C 154.859375 -218.113281 150.4375 -222.367188 144.3125 -224.640625 C 138.1875 -226.910156 129.90625 -228.046875 119.46875 -228.046875 L 99.71875 -228.046875 C 89.507812 -228.046875 81.285156 -226.910156 75.046875 -224.640625 C 68.804688 -222.367188 64.320312 -218.113281 61.59375 -211.875 C 58.875 -205.632812 57.515625 -196.613281 57.515625 -184.8125 L 57.515625 -134.78125 Z M 161.671875 -134.78125 "/></g></g></g></svg>